# xmcd
#
# Track frame offsets:
#	150
#	15647
#	28093
#	49521
#	65323
#	78341
#	102036
#	113180
#	127961
#	145475
#	160262
#	178606
#	191682
#	205120
#	218266
#	227507
#
# Disc length: 3235 seconds
#
# Revision: 0
# Processed by: cddbd v1.5.2PL0 Copyright (c) Steve Scherf et al.
# Submitted via: audiograbber 1.83.01
#
DISCID=cb0ca110
DTITLE=Charles Benvenuto - Chanson's D'Amour
DYEAR=2004
DGENRE=Chanson
TTITLE0=Et Moi Dans Mon Coin
TTITLE1=Moulin Rouge
TTITLE2=La Vie En Rose
TTITLE3=La Mer
TTITLE4=C'est Si Bon
TTITLE5=Les Feuilles Mortes
TTITLE6=Paris Canaille
TTITLE7=Hymne A L'amour
TTITLE8=Que Reste-T-Il De Nos Amours
TTITLE9=Et Maintenant
TTITLE10=Une Belle Historie
TTITLE11=Chanson D'orphee
TTITLE12=Pigalle
TTITLE13=Sous Le Ciel De Paris
TTITLE14=La Goulante Du Pauvre Jean
TTITLE15=Chaud Au Coeur
EXTD=
EXTT0=
EXTT1=
EXTT2=
EXTT3=
EXTT4=
EXTT5=
EXTT6=
EXTT7=
EXTT8=
EXTT9=
EXTT10=
EXTT11=
EXTT12=
EXTT13=
EXTT14=
EXTT15=
PLAYORDER=
